<?xml version="1.0" encoding="iso-8859-1"?>
<!-- Generator: Adobe Illustrator 19.0.0, SVG Export Plug-In . SVG Version: 6.00 Build 0)  -->
<svg version="1.1" id="Capa_1" xmlns="http://www.w3.org/2000/svg" xmlns:xlink="http://www.w3.org/1999/xlink" x="0px" y="0px"
	 viewBox="0 0 512.002 512.002" style="enable-background:new 0 0 512.002 512.002;" xml:space="preserve">
<g>
	<g>
		<path d="M439.037,185.945c-17.031-31.356-49.798-50.834-85.513-50.834c-16.089,0-32.108,4.082-46.328,11.806
			c-47.107,25.588-64.616,84.73-39.03,131.838c17.031,31.355,49.797,50.835,85.511,50.836c0.002,0,0.002,0,0.004,0
			c16.085,0,32.105-4.083,46.326-11.806c22.821-12.395,39.448-32.935,46.82-57.836S451.432,208.766,439.037,185.945z
			 M427.649,254.271c-5.854,19.779-19.061,36.094-37.188,45.939c-11.301,6.137-24.018,9.381-36.781,9.381c-0.001,0-0.002,0-0.003,0
			c-28.376-0.001-54.407-15.475-67.937-40.382c-20.322-37.417-6.415-84.393,31.001-104.717c11.299-6.137,24.018-9.38,36.782-9.38
			c28.377,0,54.409,15.472,67.938,40.379C431.308,213.617,433.505,234.492,427.649,254.271z"/>
	</g>
</g>
<g>
	<g>
		<path d="M377.289,169.435l-0.473-0.177c-5.181-1.911-10.931,0.744-12.841,5.926c-1.909,5.182,0.744,10.931,5.927,12.84
			l0.418,0.157c1.148,0.427,2.325,0.629,3.483,0.629c4.06,0,7.878-2.491,9.375-6.519
			C385.103,177.115,382.466,171.359,377.289,169.435z"/>
	</g>
</g>
<g>
	<g>
		<path d="M412.675,200.26c-2.043-3.76-4.438-7.322-7.117-10.586c-3.504-4.268-9.806-4.888-14.075-1.385
			c-4.268,3.504-4.89,9.805-1.386,14.074c1.88,2.29,3.564,4.795,5.003,7.445c6.122,11.273,7.409,24.229,3.624,36.482
			c-1.63,5.277,1.326,10.876,6.603,12.506c0.983,0.304,1.978,0.448,2.955,0.448c4.271,0,8.225-2.757,9.552-7.051
			C423.222,234.752,421.39,216.309,412.675,200.26z"/>
	</g>
</g>
<g>
	<g>
		<path d="M509.445,449.708l-68.024-125.239c15.964-15.17,27.751-34.32,34.17-56.003c9.647-32.585,6.027-66.977-10.193-96.838
			c-16.898-31.111-45.637-53.274-78.917-62.179c-25.77-36.364-61.814-63.227-102.727-77.705c-0.635-0.299-1.298-0.525-1.976-0.686
			c-21.914-7.513-45.181-11.501-68.985-11.501c-97.755,0-180.313,66.264-205.148,156.23c-0.188,0.525-0.338,1.061-0.437,1.61
			C2.517,194.935,0,213.354,0,232.352c0,64.042,28.44,121.564,73.35,160.607c0.637,0.722,1.372,1.348,2.185,1.859
			c37.081,31.376,84.995,50.328,137.259,50.328c67.86,0,131.385-32.305,171.466-86.781l66.83,123.038
			c2.687,4.948,7.15,8.557,12.569,10.16c1.992,0.59,4.023,0.882,6.042,0.882c3.469,0,6.9-0.863,10.028-2.561l21.239-11.538
			C511.199,472.789,515.002,459.943,509.445,449.708z M357.686,105.177c-1.393-0.045-2.789-0.071-4.188-0.071
			c-21.05,0-42.012,5.342-60.619,15.448c-29.862,16.22-51.621,43.098-61.268,75.683c-9.646,32.585-6.027,66.976,10.193,96.838
			c8.161,15.025,19.092,27.954,31.953,38.323l-28.781,22.576l-19.754-8.436l-14.623-61.081c-0.581-2.428-2.05-4.551-4.117-5.952
			l-26.68-18.07l-17.72-40.482l47.411-80.598c0.904-1.537,1.381-3.288,1.381-5.07v-32.346l70.076-49.924
			C310.267,63.099,336.68,81.255,357.686,105.177z M82.266,305.375l-16.618,19.082c-1.898,2.18-2.761,5.075-2.365,7.939
			l3.571,25.798C37.672,324.399,20,280.401,20,232.352c0-8.19,0.517-16.262,1.514-24.187L52.1,264.083
			c0.929,1.697,2.329,3.089,4.032,4.006l27.01,14.542L82.266,305.375z M212.794,425.146c-46.52,0-89.243-16.562-122.586-44.098
			l-6.49-46.886l15.946-18.31c1.498-1.721,2.363-3.902,2.451-6.183l1.252-32.501c0.147-3.815-1.891-7.38-5.252-9.19l-29.892-16.094
			l-40.412-73.882C51.335,98.075,125.353,39.557,212.794,39.557c14.987,0,29.735,1.761,44.005,5.106L195.071,88.64
			c-2.634,1.876-4.197,4.911-4.197,8.145v34.777l-48.619,82.653c-1.627,2.765-1.828,6.142-0.542,9.08l20.927,47.809
			c0.758,1.73,1.989,3.21,3.553,4.27l25.86,17.515l14.89,62.198c0.737,3.078,2.888,5.625,5.798,6.869l29.823,12.735
			c1.263,0.54,2.599,0.804,3.926,0.804c2.202,0,4.382-0.727,6.174-2.132l38.475-30.18c18.756,10.572,40.218,16.414,62.568,16.414
			c1.329,0,2.658-0.022,3.986-0.064C321.294,400.982,268.662,425.146,212.794,425.146z M353.706,339.596
			c-39.398,0-75.542-21.484-94.328-56.069c-13.67-25.167-16.721-54.152-8.591-81.614c8.131-27.463,26.469-50.116,51.637-63.786
			c15.686-8.52,33.348-13.024,51.073-13.024c8.409,0,16.667,0.987,24.642,2.863c0.18,0.042,0.358,0.088,0.54,0.121
			c29.164,7.019,54.459,26.049,69.144,53.086c13.671,25.167,16.722,54.152,8.592,81.615c-6.062,20.473-17.799,38.271-33.807,51.669
			c-0.138,0.109-0.272,0.221-0.401,0.337c-5.354,4.437-11.18,8.385-17.428,11.778C389.093,335.094,371.431,339.596,353.706,339.596z
			 M491.423,460.771l-21.239,11.537c-0.323,0.175-0.641,0.139-0.849,0.077s-0.493-0.203-0.669-0.527l-66.279-122.024
			c4.066-1.689,8.056-3.577,11.939-5.686c3.902-2.12,7.662-4.425,11.278-6.897l66.266,122.001
			C492.154,459.778,491.946,460.487,491.423,460.771z"/>
	</g>
</g>
<g>
	<g>
		<path d="M74.514,137.927c-4.894-2.566-10.936-0.676-13.499,4.216l-0.425,0.819c-2.517,4.916-0.571,10.941,4.345,13.458
			c1.459,0.747,3.015,1.101,4.548,1.101c3.635,0,7.141-1.988,8.91-5.445l0.337-0.649C81.293,146.534,79.405,140.49,74.514,137.927z"
			/>
	</g>
</g>
<g>
	<g>
		<path d="M160.219,72.057c-1.908-5.183-7.657-7.837-12.84-5.928C121.231,75.757,97.93,92.206,79.992,113.7
			c-3.539,4.24-2.97,10.546,1.271,14.085c1.87,1.561,4.143,2.323,6.401,2.323c2.863,0,5.705-1.223,7.684-3.593
			c15.695-18.807,36.077-33.198,58.942-41.618C159.473,82.987,162.127,77.239,160.219,72.057z"/>
	</g>
</g>
<g>
</g>
<g>
</g>
<g>
</g>
<g>
</g>
<g>
</g>
<g>
</g>
<g>
</g>
<g>
</g>
<g>
</g>
<g>
</g>
<g>
</g>
<g>
</g>
<g>
</g>
<g>
</g>
<g>
</g>
</svg>
